<svg enable-background="new 0 0 122.88 122.88" viewBox="0 0 122.88 122.88" xmlns="http://www.w3.org/2000/svg"><path d="m.21 56.33c0-.2.01-.4.05-.6 1.35-14.68 7.88-27.88 17.74-37.73 11.11-11.12 26.47-18 43.44-18 .65 0 1.3.01 1.95.03.28-.03.57-.02.86.03 15.85.72 30.13 7.43 40.63 17.94 11.12 11.12 18 26.48 18 43.44 0 16.97-6.88 32.33-18 43.44-.53.53-1.06 1.05-1.61 1.55-.29.49-.71.87-1.21 1.09-10.83 9.55-25.05 15.35-40.63 15.35-.41 0-.82-.01-1.23-.01-.19.02-.37.01-.55-.01-16.26-.46-30.93-7.24-41.66-17.97-.96-.96-1.89-1.96-2.79-2.98-.37-.26-.66-.61-.85-.99-8.95-10.68-14.35-24.44-14.35-39.47 0-1.72.07-3.42.21-5.11zm5.55-1.42c5.34 3.33 11.06 6 17 8.1-.25-10.33-2.27-21.97-6.27-35.06-5.75 7.69-9.56 16.92-10.73 26.96zm14.82-31.84c5.1 15.73 7.51 29.54 7.57 41.67 4.86 1.41 9.84 2.47 14.84 3.2-.24-3.7-.29-7.34-.16-10.94.66-18.43 6.02-35.59 15.9-51.55-14.4.69-27.38 6.8-36.93 16.35-.41.42-.82.84-1.22 1.27zm44.48-17.57c-10.51 15.94-16.21 33.15-16.87 51.69-.13 3.75-.06 7.55.22 11.41 4.5.45 9 .66 13.42.64 2.15-.01 4.27-.07 6.38-.18-.46-7.15.86-14.53 3.66-21.67 4.48-11.39 12.76-22.22 23.55-30.53-8.53-6.51-18.98-10.63-30.36-11.36zm34.56 14.9c-10.46 7.79-18.48 18.1-22.74 28.96-2.51 6.41-3.71 12.99-3.3 19.33 18.78-1.72 35.06-7.24 43.49-14.22-1.57-12.69-7.39-24.07-15.99-32.66-.48-.48-.97-.95-1.46-1.41zm17.87 40.42c-9.65 6.49-25.41 11.5-43.18 13.18.95 4.39 2.74 8.61 5.49 12.49 4.31 6.09 10.99 11.41 20.44 15.41.28-.27.56-.54.84-.82 10.14-10.14 16.42-24.16 16.42-39.64-.01-.21-.01-.41-.01-.62zm-21.75 44.96c-9.16-4.28-15.82-9.85-20.32-16.2-3.34-4.72-5.47-9.85-6.52-15.18-2.33.13-4.69.2-7.07.21-4.25.02-8.57-.17-12.9-.57 1.66 13.77 5.9 28.25 12.78 43.45 12.82-.06 24.62-4.42 34.03-11.71zm-40.03 11.42c-6.65-15.26-10.71-29.85-12.24-43.79-5.19-.71-10.37-1.74-15.45-3.14-.64 11.1-3.37 20.71-7.92 29.01.56.61 1.13 1.21 1.71 1.79 8.87 8.88 20.71 14.79 33.9 16.13zm-39.33-22.41c3.74-7.51 5.93-16.16 6.34-26.12-6.01-2-11.84-4.55-17.33-7.72v.49c0 12.49 4.08 24.03 10.99 33.35z"/></svg>